<svg width="12" height="24" viewBox="0 0 12 24" fill="none" xmlns="http://www.w3.org/2000/svg">
<g clip-path="url(#clip0_2001_710)">
<path d="M4.18542 0.237961C4.12061 0.385551 4.0558 0.801487 4.0558 1.17717V1.86145H2.83732C1.72254 1.86145 1.56699 1.88829 1.24293 2.18347L0.879978 2.50548L0.841091 12.6892C0.815165 20.1492 0.854053 22.9535 0.957753 23.2352C1.26885 24 1.22997 24 6.42794 24H11.1981L11.5092 23.6512L11.8333 23.2889V12.9039V2.5189L11.4963 2.19689C11.1981 1.9017 11.0167 1.86145 9.9019 1.83462L8.65749 1.79437L8.59268 0.922243L8.52787 0.0501175L6.42794 0.00986671C4.45764 -0.0169678 4.31505 -0.00355148 4.18542 0.237961ZM8.13899 1.1235V1.79437L6.36313 1.83462L4.5743 1.87487V1.21742C4.5743 0.855156 4.61319 0.519724 4.66504 0.466055C4.71689 0.425802 5.52056 0.398968 6.4409 0.412386L8.13899 0.452637V1.1235ZM11.263 2.58599C11.4185 2.81408 11.4444 4.43758 11.4444 12.9441C11.4444 24.0805 11.4963 23.3694 10.6278 23.5304C10.3945 23.5706 8.30751 23.5975 5.98721 23.5706C2.64288 23.5438 1.72254 23.4901 1.55403 23.3426C1.34663 23.1815 1.33367 22.2826 1.33367 12.9844C1.33367 2.92142 1.33367 2.80066 1.59292 2.53232C1.85217 2.26397 1.98179 2.25056 6.46683 2.29081C10.8611 2.33106 11.0815 2.34448 11.263 2.58599Z" fill="white"/>
<path d="M2.83331 13V22L6.33331 21.9735L9.83331 21.9338V13V4.06618L6.33331 4.02647L2.83331 4V13Z" fill="white"/>
</g>
<defs>
<clipPath id="clip0_2001_710">
<rect width="11" height="24" fill="white" transform="translate(0.833313)"/>
</clipPath>
</defs>
</svg>
