<svg width="26" height="24" viewBox="0 0 26 24" fill="none" xmlns="http://www.w3.org/2000/svg">
<g clip-path="url(#clip0_2001_714)">
<path d="M13.7 0.0532284C13.6 0.104107 13.5 5.29384 13.5 11.586C13.5 21.6262 13.5667 23 14 23C14.4333 23 14.5 21.6093 14.5 11.569C14.5 5.27688 14.3667 0.0871468 14.2 0.0362682C14.0667 -0.0146122 13.8333 -0.0146122 13.7 0.0532284Z" fill="white"/>
<path d="M5.78835 5.37894C5.69926 5.59442 5.41418 7.53379 5.16474 9.72179C4.9153 11.8932 4.66586 13.7 4.63022 13.7331C4.59459 13.7663 4.5055 13.1364 4.43424 12.3408C4.27388 10.6169 4.11352 10.1362 3.65028 10.1362C3.13358 10.1362 2.93759 10.4843 2.70596 11.8932L2.49216 13.2027L2.29617 12.4568C2.17145 11.9927 1.99327 11.6943 1.79728 11.6612C1.42312 11.5949 1.4053 12.0258 1.72601 13.1861C2.18926 14.8769 3.13358 14.4956 3.3652 12.5397C3.43647 11.9264 3.50774 11.4623 3.54337 11.4954C3.57901 11.5286 3.68591 12.2413 3.79281 13.1033C4.00662 14.7443 4.20261 15.2747 4.59459 15.2747C5.11129 15.2747 5.28946 14.6448 5.75271 10.7661C6.34068 6.00882 6.32286 5.99224 6.75048 14.0315C6.91083 16.866 7.07119 19.3026 7.12464 19.4684C7.17809 19.6175 7.37408 19.833 7.55225 19.9159C8.30058 20.2806 8.46093 19.6341 8.90636 14.4459C9.0489 12.8215 9.19144 13.0204 9.51215 15.3078C9.74377 16.8494 10.011 17.2969 10.5455 16.982C10.9375 16.7665 11.0623 16.3521 11.3117 14.5619C11.4899 13.2193 11.5433 13.1198 11.9175 13.1198C12.4342 13.1198 12.6836 12.8049 12.3451 12.606C12.2026 12.5231 11.8284 12.4568 11.5255 12.4568C10.8663 12.4568 10.9019 12.4071 10.5812 14.4459C10.4743 15.1255 10.3674 15.6891 10.3317 15.7222C10.3139 15.7554 10.1536 14.9432 10.011 13.9486C9.72596 12.1419 9.51215 11.628 9.0489 11.628C8.60347 11.628 8.4253 12.3076 8.10459 15.3244L7.78388 18.3412L7.67697 16.9323C7.6057 16.1532 7.42753 13.2856 7.26718 10.5506C7.10682 7.81558 6.91083 5.46182 6.82175 5.29606C6.5723 4.86509 5.96652 4.91481 5.78835 5.37894Z" fill="white"/>
<path d="M18.11 11.6324C17.7108 11.983 17.3116 12.2783 17.2075 12.2783C17.1207 12.2783 16.7562 12.1122 16.4265 11.8908C15.7149 11.4479 14.5 11.4479 14.5 11.9092C14.5 12.0938 14.7083 12.2045 15.1769 12.2414C15.5587 12.2783 16.062 12.4628 16.2876 12.6658C16.8604 13.1457 17.3637 13.1087 18.0753 12.5551C18.405 12.3152 18.8389 11.9646 19.0472 11.7985C19.429 11.5217 19.4637 11.5217 20.0017 12.0015C20.4877 12.4259 20.6439 12.4813 21.3381 12.3706C21.772 12.3152 22.9001 12.2783 23.8373 12.2783C25.4167 12.3152 25.5556 12.2783 25.4861 11.9646C25.4341 11.6878 25.1911 11.614 23.7332 11.4848C22.31 11.374 21.9629 11.411 21.6158 11.6509C21.1993 11.9461 21.1472 11.9277 20.5224 11.4663C19.6026 10.802 18.9778 10.8389 18.11 11.6324Z" fill="white"/>
</g>
<defs>
<clipPath id="clip0_2001_714">
<rect width="25" height="24" fill="white" transform="translate(0.5)"/>
</clipPath>
</defs>
</svg>
