<svg width="15" height="24" viewBox="0 0 15 24" fill="none" xmlns="http://www.w3.org/2000/svg">
<g clip-path="url(#clip0_2001_718)">
<path d="M8.50769 0.344301C8.50769 1.07544 8.12275 1.56287 7.38635 1.78917L6.66669 2.01548L7.38635 2.20697C8.12275 2.41586 8.50769 2.90329 8.50769 3.65184C8.50769 3.84333 8.59137 4 8.67506 4C8.77547 4 8.84242 3.84333 8.84242 3.65184C8.84242 2.9207 9.22736 2.41586 9.94702 2.22438L10.6667 2.01548L9.88008 1.75436C9.16041 1.49324 9.07673 1.4236 8.94284 0.727279C8.77547 -0.0212684 8.50769 -0.264982 8.50769 0.344301Z" fill="white"/>
<path d="M1.88456 5.55795C1.7428 6.00521 1.5656 6.20201 1.10489 6.34513C0.466984 6.55982 0.520143 6.64927 1.29981 6.84607C1.63648 6.91763 1.79596 7.09653 1.88456 7.49012C2.02632 8.16996 2.25667 8.16996 2.39843 7.49012C2.46931 7.06075 2.61106 6.91763 3.03634 6.84607C3.70968 6.70294 3.9046 6.41669 3.31985 6.41669C2.77054 6.41669 2.32755 5.98732 2.32755 5.41483C2.32755 4.80655 2.07947 4.87812 1.88456 5.55795Z" fill="white"/>
<path d="M6.38696 7.11262C5.70089 7.31331 4.86422 8.26658 4.73036 8.96899C4.68016 9.27003 4.64669 11.0762 4.68016 12.9828C4.73036 16.1604 4.76382 16.4781 5.08176 16.8962C5.70089 17.7324 6.21962 18 7.15669 18C8.14396 18 8.67942 17.699 9.29855 16.7959C9.64995 16.2607 9.66669 16.1102 9.66669 12.5312C9.66669 8.95227 9.64995 8.80175 9.29855 8.26658C8.56229 7.19624 7.49136 6.77814 6.38696 7.11262Z" fill="white"/>
<path d="M13.0425 7.525C12.9469 7.8625 12.6985 8.125 12.2782 8.275L11.6667 8.5375L12.2017 8.66875C12.5648 8.74375 12.8323 8.9875 13.0043 9.4L13.2527 10L13.4055 9.45625C13.482 9.11875 13.7304 8.85625 14.0934 8.70625L14.6667 8.4625L14.1125 8.2375C13.7877 8.10625 13.4629 7.7875 13.3673 7.50625L13.1762 7L13.0425 7.525Z" fill="white"/>
<path d="M1.78375 14.1278C1.59501 14.2929 1.64649 16.2244 1.85238 17.1489C2.24701 18.9318 3.79121 20.3681 5.76435 20.7808L6.81098 20.9954V22.2831V23.5708L4.9751 23.6203C3.84268 23.6533 3.13921 23.7359 3.17353 23.8349C3.19069 23.934 4.66626 24 7.15413 24C9.64201 24 11.1176 23.934 11.1519 23.8349C11.1691 23.7359 10.4656 23.6533 9.35033 23.6203L7.49729 23.5708V22.2666C7.49729 20.9624 7.49729 20.9459 7.97771 20.8634C10.4484 20.3681 11.5637 19.5427 12.3186 17.6442C12.7304 16.6206 12.799 14.0123 12.4044 14.0123C12.25 14.0123 12.147 14.4085 12.0784 15.5311C11.9926 16.7527 11.8725 17.2314 11.4951 17.9578C10.6543 19.5262 9.21307 20.3186 7.15413 20.3186C5.23246 20.3186 3.77405 19.5757 2.91616 18.189C2.55585 17.5781 2.4529 17.1819 2.40143 16.0924C2.29848 14.1608 2.17838 13.7481 1.78375 14.1278Z" fill="white"/>
</g>
<defs>
<clipPath id="clip0_2001_718">
<rect width="14" height="24" fill="white" transform="translate(0.666687)"/>
</clipPath>
</defs>
</svg>
